# xmcd
#
# Track frame offsets: 
#        150
#        13828
#        32368
#        42585
#        56233
#        60156
#        74165
#        88044
#        102284
#        115463
#        126294
#        138987
#
# Disc length: 2019 seconds
#
# Revision: 0
# Processed by: cddbd v1.5.2PL0 Copyright (c) Steve Scherf et al.
# Submitted via: ExactAudioCopy v0.95a5
#
DISCID=ae07e10c
DTITLE=Cantigas de Ninar - Cantigas de Ninar
DYEAR=2008
DGENRE=Acoustic
TTITLE0=Soninho de bebê 1
TTITLE1=Canção de Ninar
TTITLE2=Soninho de bebê 2
TTITLE3=Soninho de bebê 3
TTITLE4=Soninho de bebê 4
TTITLE5=Dorme filhinho
TTITLE6=Soninho de bebê 5
TTITLE7=Maezinha do céu
TTITLE8=Soninho de bebê 6
TTITLE9=Soninho de bebê 7
TTITLE10=Dorme nenê
TTITLE11=Soninho de bebê 8
EXTD=
EXTT0=
EXTT1=
EXTT2=
EXTT3=
EXTT4=
EXTT5=
EXTT6=
EXTT7=
EXTT8=
EXTT9=
EXTT10=
EXTT11=
PLAYORDER=
